<svg width="46" height="46" viewBox="0 0 46 46" fill="none" xmlns="http://www.w3.org/2000/svg">
<path d="M36.2658 21.7765C35.4974 20.047 34.3803 18.4947 32.9845 17.2167L31.8327 16.1599C31.7936 16.125 31.7465 16.1002 31.6956 16.0877C31.6447 16.0753 31.5915 16.0755 31.5407 16.0884C31.4899 16.1013 31.443 16.1265 31.4042 16.1617C31.3654 16.1969 31.3358 16.2411 31.3181 16.2905L30.8036 17.7669C30.483 18.6931 29.8932 19.6391 29.058 20.5692C29.0026 20.6286 28.9393 20.6444 28.8957 20.6484C28.8522 20.6523 28.7849 20.6444 28.7255 20.589C28.6701 20.5415 28.6424 20.4703 28.6464 20.399C28.7928 18.0162 28.0804 15.3286 26.5209 12.4036C25.2305 9.97329 23.4375 8.07734 21.1972 6.75532L19.5624 5.79349C19.3487 5.66683 19.0756 5.83307 19.0875 6.08244L19.1746 7.98234C19.2339 9.28061 19.0835 10.4285 18.7273 11.3824C18.2919 12.55 17.6665 13.6346 16.867 14.6083C16.3105 15.285 15.6799 15.897 14.9868 16.433C13.3177 17.7161 11.9605 19.3601 11.0168 21.2421C10.0755 23.1405 9.58513 25.2306 9.58398 27.3495C9.58398 29.2177 9.95209 31.0266 10.6804 32.7326C11.3836 34.3751 12.3985 35.8657 13.6688 37.1222C14.9512 38.3888 16.4395 39.3862 18.0979 40.0789C19.8158 40.7993 21.6365 41.1634 23.5166 41.1634C25.3967 41.1634 27.2175 40.7993 28.9353 40.0828C30.5897 39.3942 32.0941 38.3899 33.3645 37.1261C34.6469 35.8595 35.6523 34.3792 36.3529 32.7365C37.0801 31.0352 37.4531 29.2037 37.4493 27.3535C37.4493 25.4219 37.0535 23.5457 36.2658 21.7765Z" fill="#E55C5C"/>
</svg>
