<svg width="32" height="32" viewBox="0 0 32 32" fill="none" xmlns="http://www.w3.org/2000/svg">
<path d="M9.00738 12.2448C8.42404 12.5925 7.81359 12.8007 7.16411 12.8704C6.72653 12.9195 6.31034 12.8688 5.96225 12.7339C5.39157 12.5076 4.96815 12.1001 4.70753 11.5271C4.64739 11.3949 4.64325 11.2417 4.70235 11.1007C4.94431 10.5144 5.35268 10.103 5.92197 9.85699C6.26354 9.70942 6.68372 9.65194 7.12014 9.68438C8.02232 9.75669 8.84852 10.0984 9.6437 10.7014L10.0747 10.6934C10.1648 10.3223 10.3602 9.98172 10.6343 9.70006L10.4098 9.32341C9.47448 8.9658 8.74969 8.43915 8.22083 7.70856C7.95958 7.35382 7.79469 6.97276 7.74075 6.60028C7.64989 5.98834 7.79275 5.42384 8.16014 4.91227C8.24485 4.7933 8.37806 4.7139 8.52301 4.69598C9.14775 4.61617 9.71225 4.75903 10.2073 5.13004C10.5093 5.35467 10.766 5.68097 10.9538 6.07952C11.3403 6.89498 11.4587 7.78304 11.3284 8.77584L11.5529 9.15248C11.9283 9.04077 12.3236 9.03549 12.6929 9.13285L12.9049 8.75747C12.75 7.7666 12.8425 6.87732 13.2062 6.05669C13.3825 5.65278 13.6311 5.31785 13.9279 5.08486C14.4105 4.70385 14.9713 4.53765 15.602 4.60367C15.7469 4.61692 15.8797 4.69342 15.9747 4.81108C16.3593 5.31016 16.5163 5.87644 16.4394 6.48881C16.3924 6.85917 16.2391 7.24939 15.9877 7.6109C15.6175 8.14906 15.1439 8.58696 14.5606 8.93467C14.3355 9.06883 14.0922 9.18275 13.8387 9.29023L13.6267 9.66561C13.7612 9.79714 13.8891 9.93874 13.9904 10.1087C14.0917 10.2786 14.1554 10.4586 14.2072 10.6394L14.6455 10.6333C15.4213 10.0028 16.2386 9.64016 17.1403 9.54464C17.5779 9.49547 17.9941 9.5462 18.3422 9.68109C18.9129 9.90742 19.3363 10.3149 19.5969 10.8879C19.657 11.0201 19.6566 11.176 19.6021 11.3144C19.4026 11.7943 19.0916 12.1602 18.6736 12.4094C18.5817 12.4641 18.4871 12.5143 18.3871 12.5553C18.0455 12.7029 17.6299 12.7576 17.1889 12.7279C16.2867 12.6556 15.4605 12.3139 14.6699 11.7082L14.2389 11.7161C14.1507 12.0799 13.9553 12.4205 13.6858 12.6994C13.7652 12.8326 13.8492 12.9631 13.9286 13.0963C14.8474 13.4575 15.5621 13.9777 16.0901 14.6964C16.3513 15.0511 16.5162 15.4322 16.5701 15.8047C16.6268 16.1817 16.5836 16.5374 16.4625 16.8773C16.858 17.4259 17.2563 17.948 17.6455 18.4443C17.6907 18.0501 17.8064 17.6699 18.0047 17.3027C18.4306 16.5134 19.1531 15.9396 20.0866 15.6571C20.8135 15.4354 21.573 15.3936 22.3291 15.5343C22.5189 15.5706 22.6799 15.705 22.7417 15.8922C22.8035 16.0795 22.7562 16.282 22.6228 16.4238C22.2493 16.8207 21.7749 17.5392 21.6692 18.2496C21.5046 19.3625 20.8911 20.0145 20.2067 20.4225C20 20.5457 19.7934 20.6377 19.584 20.7251C21.2717 22.533 22.8235 23.737 24.1253 24.2185C24.4038 24.3202 24.5441 24.6287 24.4424 24.9072C24.3962 25.0282 24.3143 25.1205 24.2133 25.1808C24.0801 25.2602 23.9113 25.2799 23.7537 25.2244C22.8166 24.8741 21.8545 24.2523 20.9095 23.471L20.8314 23.5175C20.448 23.8456 20.0151 24.1846 19.5374 24.4694C18.6372 25.006 17.565 25.3587 16.3259 25.1075C15.4423 24.9307 14.2559 25.1648 13.5096 25.4167C13.304 25.4894 13.0786 25.4246 12.9396 25.2646C12.8007 25.1046 12.7665 24.8698 12.8625 24.6756C13.273 23.8396 13.864 23.0764 14.6206 22.4138C15.5685 21.5811 16.6484 21.0743 17.7419 20.9454C17.9346 20.924 18.1208 20.9126 18.3079 20.9131C18.2896 20.8929 18.2686 20.8681 18.2503 20.8478C17.3371 19.8172 16.492 18.7335 15.7475 17.7144C15.1365 17.7859 14.584 17.6422 14.1063 17.2795C13.8043 17.0549 13.5476 16.7286 13.3598 16.33C12.9734 15.5146 12.8549 14.6265 12.9806 13.6364L12.7561 13.2598C12.3807 13.3715 11.9855 13.3768 11.6162 13.2794L11.4042 13.6548C11.559 14.6457 11.4666 15.535 11.1029 16.3556C10.9266 16.7595 10.678 17.0944 10.3811 17.3274C10.2974 17.396 10.2083 17.4553 10.1165 17.5101C9.69847 17.7592 9.22406 17.8615 8.71158 17.8059C8.56399 17.788 8.43397 17.7161 8.33894 17.5985C7.9543 17.0994 7.79729 16.5331 7.87426 15.9207C7.92119 15.5504 8.07455 15.1602 8.32595 14.7986C8.84165 14.0555 9.54937 13.5091 10.4703 13.122L10.6842 12.7393C10.5497 12.6078 10.4218 12.4662 10.3205 12.2963C10.2192 12.1263 10.1555 11.9464 10.1037 11.7656L9.67269 11.7735C9.44841 11.9508 9.23245 12.1106 9.00738 12.2448ZM7.03361 10.7507C6.76589 10.7297 6.52828 10.7593 6.34005 10.8404C6.105 10.9369 5.93125 11.084 5.80043 11.2928C5.93556 11.4986 6.11856 11.6385 6.35581 11.7336C6.54359 11.8085 6.78287 11.8339 7.05165 11.8044C7.59655 11.7473 8.09137 11.5644 8.57463 11.2577C8.07754 10.9564 7.57638 10.7944 7.03361 10.7507ZM15.099 7.00765C15.2528 6.78525 15.3442 6.56267 15.3677 6.36191C15.3996 6.11256 15.3562 5.88317 15.2441 5.66367C14.9983 5.67946 14.7862 5.7623 14.5895 5.92313C14.4332 6.0474 14.2896 6.24507 14.1806 6.49053C13.9609 6.98877 13.865 7.50663 13.8908 8.08262C14.3979 7.8053 14.7914 7.45245 15.099 7.00765ZM17.2635 11.6625C17.5312 11.6834 17.7688 11.6539 17.9571 11.5728C18.1894 11.4717 18.3677 11.3218 18.4967 11.1204C18.3616 10.9146 18.1785 10.7747 17.944 10.6841C17.7563 10.6093 17.517 10.5838 17.2482 10.6133C16.7033 10.6704 16.2131 10.8506 15.7252 11.1601C16.2196 11.4568 16.7207 11.6187 17.2635 11.6625ZM20.6123 18.0953C20.6956 17.5352 20.931 16.9902 21.2111 16.5306C20.9368 16.5509 20.6671 16.5997 20.3927 16.6823C19.9355 16.8241 19.3037 17.1322 18.9368 17.8116C18.7219 18.2136 18.5046 18.8411 18.9236 19.8364C19.9994 19.4691 20.4805 18.9707 20.6123 18.0953ZM9.19815 15.4055C9.04436 15.6279 8.95292 15.8505 8.92942 16.0513C8.90025 16.3052 8.93628 16.5327 9.05303 16.7495C9.29885 16.7337 9.51093 16.6509 9.70765 16.49C9.86391 16.3658 10.0075 16.1681 10.1165 15.9226C10.3362 15.4244 10.4321 14.9065 10.4063 14.3305C9.89926 14.6079 9.50573 14.9607 9.19815 15.4055ZM9.56378 5.99296C9.36064 5.84014 9.14627 5.76249 8.89869 5.75443C8.79259 5.9733 8.75893 6.1988 8.79212 6.45292C8.82364 6.65202 8.92388 6.8724 9.07915 7.09111C9.40434 7.53224 9.80136 7.87453 10.3123 8.13646C10.3222 7.55782 10.2146 7.04304 9.97942 6.55449C9.87008 6.3084 9.72391 6.11539 9.56378 5.99296ZM17.8636 22.0059C16.9866 22.1116 16.1041 22.5318 15.318 23.2182C15.0118 23.4879 14.7377 23.7695 14.4966 24.0751C15.1719 23.9652 15.901 23.9352 16.5362 24.0608C17.6681 24.2888 18.7302 23.8985 20.0752 22.7606C19.5029 22.1243 18.8048 21.8931 17.8636 22.0059ZM14.7333 16.4202C14.9365 16.573 15.1508 16.6507 15.3984 16.6587C15.5045 16.4399 15.5428 16.2116 15.505 15.9602C15.4735 15.7611 15.3732 15.5408 15.218 15.322C14.8928 14.8809 14.4958 14.5386 13.9848 14.2767C13.9749 14.8553 14.0825 15.3701 14.3177 15.8587C14.427 16.1048 14.5732 16.2978 14.7333 16.4202ZM12.6961 12.1252C13.2014 11.8241 13.3684 11.1643 13.0672 10.659C12.766 10.1537 12.1062 9.98677 11.601 10.2879C11.0957 10.5891 10.9287 11.2489 11.2299 11.7542C11.5311 12.2594 12.1909 12.4264 12.6961 12.1252Z" fill="#359740"/>
</svg>
