<svg width="28" height="28" viewBox="0 0 28 28" fill="none" xmlns="http://www.w3.org/2000/svg">
<g clip-path="url(#clip0_804_157)">
<path d="M22.3868 9.17501C21.14 7.27195 19.1877 6.07219 17.093 5.73433C17.1143 5.58953 17.093 5.43094 17.0146 5.29304C16.865 5.03102 16.5586 4.88622 16.2451 4.94828L11.9202 5.81017L11.3217 4.03122C11.2362 3.7761 11.0011 3.58993 10.7232 3.56235C10.4453 3.53477 10.1746 3.66578 10.0321 3.90021L8.74247 6.03082C7.8661 5.38267 6.79022 4.94138 5.7001 4.94138C5.30822 4.94138 4.9876 5.25166 4.9876 5.6309C4.9876 6.01013 5.30822 6.32042 5.7001 6.32042C6.5266 6.32042 7.3531 6.70654 8.0086 7.22368L3.88322 9.88521C3.6196 10.0507 3.5056 10.3679 3.59822 10.6575C3.68372 10.9471 3.9616 11.147 4.2751 11.147H6.17747L5.00897 15.098C4.92347 15.4013 5.05172 15.7185 5.3296 15.8771C5.4436 15.9461 5.57185 15.9667 5.7001 15.9667C5.71435 18.2215 6.74747 20.4072 8.64985 21.8138C11.4642 23.8893 15.5611 24.9442 20.8336 24.9442C21.0331 24.9442 21.2326 24.9442 21.4321 24.9374C23.0851 24.9098 24.4887 23.6893 24.6953 22.0965C25.3722 16.8907 24.5956 12.5467 22.3868 9.17501ZM23.2846 21.9242C23.1635 22.8412 22.3655 23.5445 21.4178 23.5583C16.181 23.6342 12.1767 22.6826 9.5191 20.7175C7.65235 19.3385 6.81872 17.0286 7.23197 14.8084L8.25797 13.8499C7.31747 16.1253 7.99435 18.7248 9.95372 20.1728C12.3833 21.9655 16.0456 22.8757 20.8336 22.8757C21.026 22.8757 21.2183 22.8757 21.4178 22.8688C21.8097 22.8619 22.1232 22.5447 22.1161 22.1655C22.109 21.7863 21.7883 21.4898 21.4036 21.4898C21.3965 21.4898 21.3965 21.4898 21.3893 21.4898C16.6512 21.5725 13.0887 20.7451 10.823 19.0765C9.29822 17.9526 8.82797 15.8495 9.71147 14.0844L11.5568 16.4011C11.6851 16.5666 11.8988 16.6632 12.1126 16.6632C12.191 16.6632 12.2693 16.6494 12.3406 16.6287C12.6327 16.5321 12.8251 16.2701 12.8251 15.9736V11.0643L17.8981 10.4506C18.2187 10.4092 18.4752 10.1679 18.518 9.85763C18.5607 9.54735 18.3826 9.25086 18.0833 9.12675L15.0766 7.93388L15.9886 7.01683C18.0192 7.0513 19.9928 8.08558 21.1827 9.9059C23.2062 13.0087 23.9187 17.0493 23.2846 21.9242ZM8.94197 8.27175C8.95622 8.26485 8.95622 8.25796 8.96335 8.25106C9.15572 8.54755 9.2626 8.83715 9.2626 9.07848C9.2626 9.45771 9.58322 9.768 9.9751 9.768C10.367 9.768 10.6876 9.45771 10.6876 9.07848C10.6876 8.42344 10.3456 7.68566 9.78985 7.01683L10.4525 5.9205L10.7588 6.83066C10.8728 7.16852 11.2291 7.36158 11.5782 7.29263L14.2643 6.75481L13.3096 7.71324C13.1457 7.87872 13.0745 8.11316 13.1243 8.3338C13.1742 8.55445 13.331 8.74062 13.5518 8.83025L15.0196 9.40945L12.02 9.77489C11.6708 9.81626 11.4001 10.1128 11.4001 10.4575V13.9465L9.61885 11.7055C9.49772 11.5469 9.30535 11.4504 9.10585 11.4366C9.0916 11.4366 9.07022 11.4366 9.05597 11.4366C8.87072 11.4366 8.6926 11.5056 8.55722 11.6297L7.11797 12.9811L7.8091 10.6368C7.87322 10.4368 7.83047 10.2162 7.6951 10.0438C7.55972 9.87142 7.34597 9.768 7.1251 9.768H6.62635L8.94197 8.27175Z" fill="#359740"/>
<path d="M15.1696 13.7052C15.3121 13.8362 15.4903 13.9052 15.6755 13.9052C15.8608 13.9052 16.0389 13.8362 16.1814 13.7052C16.4593 13.4363 16.4593 13.0019 16.1814 12.733L15.4689 12.0435C15.191 11.7746 14.7421 11.7746 14.4643 12.0435C14.1864 12.3124 14.1864 12.7468 14.4643 13.0157L15.1696 13.7052Z" fill="#359740"/>
<path d="M19.445 13.0158C19.5875 13.1468 19.7657 13.2157 19.9509 13.2157C20.1362 13.2157 20.3143 13.1468 20.4568 13.0158C20.7347 12.7468 20.7347 12.3125 20.4568 12.0435L19.7443 11.354C19.4664 11.0851 19.0175 11.0851 18.7397 11.354C18.4618 11.6229 18.4618 12.0573 18.7397 12.3262L19.445 13.0158Z" fill="#359740"/>
<path d="M16.1814 17.5526L15.4689 16.8631C15.191 16.5941 14.7421 16.5941 14.4643 16.8631C14.1864 17.132 14.1864 17.5664 14.4643 17.8353L15.1768 18.5248C15.3121 18.6627 15.4903 18.7316 15.6755 18.7316C15.8608 18.7316 16.0389 18.6627 16.1814 18.5317C16.4593 18.2628 16.4593 17.8215 16.1814 17.5526Z" fill="#359740"/>
<path d="M18.0193 16.4633C18.1618 16.5943 18.3399 16.6632 18.5251 16.6632C18.7104 16.6632 18.8885 16.5943 19.031 16.4633C19.3089 16.1944 19.3089 15.76 19.031 15.4911L18.3185 14.8015C18.0406 14.5326 17.5917 14.5326 17.3139 14.8015C17.036 15.0704 17.036 15.5048 17.3139 15.7738L18.0193 16.4633Z" fill="#359740"/>
<path d="M20.8696 16.4635L21.5821 17.153C21.7246 17.284 21.9028 17.3529 22.088 17.3529C22.2733 17.3529 22.4514 17.284 22.5939 17.153C22.8718 16.8841 22.8718 16.4497 22.5939 16.1807L21.8814 15.4912C21.6035 15.2223 21.1546 15.2223 20.8768 15.4912C20.5918 15.7532 20.5918 16.1945 20.8696 16.4635Z" fill="#359740"/>
<path d="M19.7443 18.2422C19.4664 17.9733 19.0175 17.9733 18.7397 18.2422C18.4618 18.5111 18.4618 18.9455 18.7397 19.2144L19.4522 19.9039C19.5875 20.0418 19.7657 20.1108 19.9509 20.1108C20.1362 20.1108 20.3143 20.0418 20.4568 19.9108C20.7347 19.6419 20.7347 19.2075 20.4568 18.9386L19.7443 18.2422Z" fill="#359740"/>
</g>
<defs>
<clipPath id="clip0_804_157">
<rect width="21.375" height="21.375" fill="white" transform="translate(3.5625 3.5625)"/>
</clipPath>
</defs>
</svg>
