<svg width="28" height="28" viewBox="0 0 28 28" fill="none" xmlns="http://www.w3.org/2000/svg">
<path d="M23.8161 25.8609C23.9233 25.6945 23.9604 25.4925 23.9193 25.2989C23.8782 25.1052 23.7622 24.9357 23.5966 24.8273C22.7857 24.3011 21.8447 23.6849 20.8332 22.9896C21.2271 21.4073 21.4813 19.7934 21.5928 18.1666C21.7549 15.2923 21.2621 12.9818 20.126 11.1682C17.9142 7.66455 13.6997 6.80376 10.3089 6.10955C8.22389 5.68416 6.25731 5.28798 5.4525 4.3866C5.3578 4.28118 5.23517 4.20479 5.09883 4.16628C4.96249 4.12776 4.81803 4.1287 4.6822 4.16899C4.54637 4.20929 4.42474 4.28727 4.33141 4.39391C4.23808 4.50056 4.17688 4.63148 4.1549 4.7715C4.06183 5.2243 2.59795 15.6167 8.09179 21.0775C10.8001 23.7607 14.6994 24.7539 19.6942 24.0217C20.8191 24.836 21.8627 25.4955 22.783 26.0805C22.9492 26.1878 23.1512 26.2249 23.3447 26.1838C23.5383 26.1426 23.7077 26.0266 23.8161 25.8609V25.8609ZM9.13473 20.0175C5.25315 16.1794 5.34087 9.16349 5.50288 6.28919C6.93943 6.92241 8.4548 7.3589 10.008 7.58686C13.2804 8.25188 16.9829 9.00872 18.8575 11.9678C20.2901 14.2486 20.501 17.5644 19.5051 22.0512C15.5669 19.2161 11.1242 15.3464 9.74544 10.9135C9.6782 10.7343 9.545 10.5877 9.37314 10.5036C9.20129 10.4195 9.00378 10.4043 8.82112 10.4613C8.63845 10.5182 8.48446 10.6428 8.3907 10.8097C8.29694 10.9765 8.27052 11.1729 8.31685 11.3586C9.73211 15.9438 13.9504 19.8008 17.8618 22.7095C14.1402 22.9577 11.2188 22.0572 9.15012 20.0108L9.13473 20.0175Z" fill="#359740"/>
</svg>
