<svg width="28" height="28" viewBox="0 0 28 28" fill="none" xmlns="http://www.w3.org/2000/svg">
<path d="M7.01166 6.53993C6.82791 7.12353 7.28417 8.41472 7.4852 8.63978L7.31006 8.93701L10.8536 21.3102C11.0528 22.0593 11.6301 22.1064 11.8939 22.0363L21.1521 19.575C22.0716 19.4642 22.2297 18.9543 22.1938 18.7131L18.7839 5.88667L18.4052 5.7367C18.5609 5.4725 18.6515 4.1139 18.169 3.57374C17.5659 2.89854 7.24134 5.81045 7.01166 6.53993Z" stroke="#359740" stroke-width="1.5"/>
<path d="M4.03919 13.1508C3.95311 13.7723 4.69329 14.8968 4.95338 15.0576L4.82156 15.3978L11.0208 26.4149C11.3796 27.0864 12.0114 26.9647 12.2824 26.8199L21.796 21.7374C22.7665 21.3627 22.8391 20.8204 22.7541 20.5961L16.6119 9.09894L16.1745 9.06284C16.2917 8.76047 16.1285 7.41156 15.5043 7.02572C14.724 6.54342 4.14679 12.374 4.03919 13.1508Z" fill="white" stroke="#359740" stroke-width="1.5"/>
</svg>
